<svg width="38" height="47" viewBox="0 0 38 47" fill="none" xmlns="http://www.w3.org/2000/svg">
<path d="M37.3227 5.40194C37.3101 7.00563 36.4614 8.40369 35.2018 9.17386C34.5355 9.58144 33.7536 9.81276 32.9193 9.80542C30.5076 9.78522 28.5682 7.78039 28.588 5.32759C28.5944 4.54089 28.802 3.80377 29.1605 3.16578C29.9189 1.81545 31.3536 0.910339 32.9924 0.925027C35.4041 0.945222 37.3435 2.94914 37.3227 5.40194Z" fill="#585E60"/>
<path d="M35.2018 9.17345C34.5355 9.58103 33.7536 9.81235 32.9193 9.80501C30.5076 9.78481 28.5682 7.77998 28.588 5.32718C28.5944 4.54048 28.802 3.80335 29.1605 3.16537C31.5813 4.69295 33.6479 6.7491 35.2018 9.17345Z" fill="#414749"/>
<path d="M9.41162 5.16586C9.39176 7.61774 7.41981 9.58953 5.00726 9.56934C4.2443 9.56291 3.5292 9.3582 2.908 9.00387C1.56539 8.23645 0.662482 6.76862 0.676929 5.09242C0.696793 2.63962 2.66783 0.667829 5.08039 0.688942C6.7625 0.702712 8.21527 1.6831 8.93308 3.10686C9.24458 3.72383 9.41794 4.42414 9.41162 5.16586Z" fill="#585E60"/>
<path d="M8.93328 3.1068C9.24478 3.72368 9.41814 4.42408 9.41182 5.1658C9.39196 7.61769 7.42001 9.58948 5.00745 9.56928C4.2445 9.56285 3.5294 9.35815 2.9082 9.00381C4.46932 6.6216 6.52885 4.60492 8.93328 3.1068Z" fill="#414749"/>
<path d="M36.97 19.8723C36.97 29.067 30.2886 36.6756 21.5929 37.9541C20.7459 38.0781 19.8802 38.1425 18.9997 38.1425C15.1638 38.1425 11.609 36.9208 8.69089 34.8388C4.05818 31.5342 1.0293 26.0623 1.0293 19.8723C1.0293 9.78241 9.07525 1.60215 18.9997 1.60215C28.9242 1.60215 36.97 9.78241 36.97 19.8723Z" fill="#F9E8D4"/>
<path d="M24.3479 33.8374L21.5928 37.9541C20.7458 38.0781 19.8801 38.1425 18.9996 38.1425C15.1637 38.1425 11.6089 36.9208 8.69079 34.8388C8.16765 33.5991 7.85308 32.4616 7.6697 31.6345C7.54401 31.0705 7.6753 30.4903 8.02716 30.0418C8.37902 29.5951 8.92257 29.3283 9.483 29.3283C9.87676 29.3283 10.2546 29.4541 10.5758 29.6926C11.7617 30.5708 13.4585 32.0556 14.8091 34.1451C14.8631 34.2294 14.918 34.3145 14.9729 34.4007L21.104 30.8172L24.3479 33.8374Z" fill="#EFCDB1"/>
<path d="M36.9705 19.8723C36.9705 29.9622 28.9245 38.1424 19.0001 38.1424C18.6938 38.1424 18.3895 38.1348 18.0879 38.1197C27.5878 37.6352 35.1451 29.6508 35.1451 19.8723C35.1451 10.0937 27.5878 2.10939 18.0879 1.62489C18.3895 1.60975 18.6938 1.60222 19.0001 1.60222C28.9245 1.60213 36.9705 9.78239 36.9705 19.8723Z" fill="#EFCDB1"/>
<path d="M23.193 16.3632C23.193 16.3632 19.7825 17.5716 21.1477 22.0275C22.5129 26.4834 25.6287 29.5487 28.5328 28.016C31.437 26.4834 30.7476 20.3654 28.7923 17.672C26.8369 14.9786 23.193 16.3632 23.193 16.3632Z" fill="#585E60"/>
<path d="M14.8062 16.3632C14.8062 16.3632 18.2166 17.5716 16.8514 22.0275C15.4862 26.4834 12.3705 29.5486 9.46631 28.016C6.56212 26.4834 7.25157 20.3654 9.2069 17.672C11.1622 14.9786 14.8062 16.3632 14.8062 16.3632Z" fill="#585E60"/>
<path d="M18.9999 28.6617C20.0645 28.6617 20.9275 27.7843 20.9275 26.702C20.9275 25.6196 20.0645 24.7422 18.9999 24.7422C17.9353 24.7422 17.0723 25.6196 17.0723 26.702C17.0723 27.7843 17.9353 28.6617 18.9999 28.6617Z" fill="#8B5016"/>
<path d="M9.03166 31.3221C8.93776 30.8985 9.40908 30.5841 9.75416 30.8398C10.7533 31.5798 12.3747 32.9638 13.6426 34.9249C13.8076 35.1795 13.9653 35.4332 14.1164 35.6829C14.355 36.0783 14.5764 36.466 14.779 36.8426C15.1047 37.4471 15.3805 38.0222 15.6008 38.5462L13.6714 39.8359C13.0912 39.2144 12.4566 38.428 11.8236 37.5284C11.6079 37.2217 11.392 36.9029 11.1786 36.5718C10.9752 36.2571 10.7884 35.9401 10.6177 35.6235C9.7241 33.9698 9.25992 32.3512 9.03166 31.3221Z" fill="#009655"/>
<path d="M11.8242 37.5286L14.117 35.6831C14.3556 36.0786 14.577 36.4663 14.7796 36.8428C15.1053 37.4474 15.3811 38.0225 15.6014 38.5465L13.672 39.8362C13.0919 39.2146 12.4572 38.4282 11.8242 37.5286Z" fill="#006B42"/>
<path d="M10.6182 35.6236C11.4738 35.8307 12.5827 36.1481 14.7796 36.8427C15.1052 37.4473 15.3811 38.0224 15.6014 38.5463L13.672 39.8361C12.8936 39.0027 12.0196 37.8732 11.179 36.5719C10.9755 36.2571 10.7889 35.9402 10.6182 35.6236Z" fill="#006B42"/>
<path d="M4.26353 37.0598C3.84322 36.8435 3.97378 36.2021 4.44393 36.173C5.67765 36.097 7.56138 36.098 9.58921 36.5245C10.5442 36.725 11.4423 36.9534 12.2418 37.1917C12.6989 37.3276 13.1226 37.4669 13.5071 37.6067L13.1428 39.3984C12.2458 39.3401 11.1722 39.2022 10.0098 38.9882C9.72023 38.9346 9.42398 38.8759 9.12422 38.8127C7.09612 38.3864 5.36642 37.6273 4.26353 37.0598Z" fill="#00C37A"/>
<path d="M10.0098 38.9883L12.2417 37.1917C12.6989 37.3276 13.1226 37.4669 13.5071 37.6067L13.1427 39.3984C12.2459 39.3401 11.1723 39.2023 10.0098 38.9883Z" fill="#009655"/>
<path d="M7.875 42.1168L21.8036 30.5696L24.3481 33.8374L10.4196 45.3845L7.875 42.1168Z" fill="#A4E869"/>
<path d="M7.875 42.1168L9.56081 40.7599C9.60496 40.8071 9.64776 40.8573 9.68821 40.9093L11.9862 43.8604C12.0284 43.9147 12.0685 43.9708 12.1048 44.0281L10.4197 45.3845L7.875 42.1168Z" fill="#60DC4D"/>
<path d="M21.8043 30.5696L22.5374 31.511L8.60904 43.058L7.87598 42.1165L21.8043 30.5696Z" fill="#60DC4D"/>
<path d="M8.83553 41.5958L11.1332 44.5464C11.5003 45.0179 11.422 45.7028 10.9583 46.076C10.4945 46.4492 9.82087 46.3697 9.45375 45.8982L7.15613 42.9476C6.78901 42.4761 6.8673 41.7912 7.33103 41.418C7.79476 41.0446 8.46841 41.1243 8.83553 41.5958Z" fill="#A4E869"/>
<path d="M23.8331 29.4452C22.4071 29.4452 21.251 30.6205 21.251 32.0704C21.251 33.5202 22.4071 34.6956 23.8331 34.6956L25.4551 34.4965V29.4452H23.8331Z" fill="#F9E8D4"/>
<path d="M18.2423 2.30874C18.5158 2.2968 18.7635 2.29102 18.9996 2.29102C27.8222 2.29102 35.21 9.00401 36.1844 17.906C36.2229 18.258 36.5161 18.5184 36.8566 18.5184C36.8815 18.5184 36.9069 18.517 36.9322 18.5141C37.304 18.4721 37.5718 18.1316 37.5304 17.7538C37.2303 15.0121 36.3464 12.3958 34.9627 10.07C36.7646 9.27215 37.9827 7.44687 37.9994 5.4076C38.011 4.03745 37.497 2.74495 36.552 1.76824C35.6071 0.791616 34.3448 0.247538 32.9976 0.236247C30.9155 0.219448 29.0527 1.50497 28.2823 3.42875C25.479 1.7911 22.2868 0.914072 18.9996 0.914072C18.744 0.914072 18.4773 0.920223 18.1842 0.933074C17.8106 0.949414 17.5207 1.27061 17.5368 1.65037C17.5528 2.03032 17.8679 2.32581 18.2423 2.30874ZM32.9863 1.61319C33.9719 1.62146 34.8954 2.01939 35.5864 2.73376C36.2775 3.44812 36.6535 4.39353 36.645 5.39595C36.6322 6.9698 35.6419 8.3697 34.2037 8.89642C33.4151 7.7688 32.5021 6.72287 31.4741 5.7814C30.8342 5.19537 30.1593 4.65873 29.4548 4.17303C29.9571 2.64214 31.3772 1.59887 32.9863 1.61319Z" fill="black"/>
<path d="M36.9812 20.0106C36.6043 19.9914 36.2911 20.2879 36.2746 20.6678C35.9 29.2226 29.4348 36.2201 21.2346 37.3066L23.5681 35.372C23.6556 35.3791 23.7438 35.3838 23.8331 35.3838C24.2072 35.3838 24.5103 35.0756 24.5103 34.6953C24.5103 34.315 24.2072 34.0068 23.8331 34.0068C22.7828 34.0068 21.9282 33.138 21.9282 32.0701C21.9282 31.0023 22.7828 30.1334 23.8331 30.1334C24.2072 30.1334 24.5103 29.8252 24.5103 29.4449C24.5103 29.0646 24.2072 28.7565 23.8331 28.7565C22.6923 28.7565 21.6872 29.3559 21.1047 30.2607L19.6773 31.4441V29.2589C20.7862 28.955 21.6049 27.924 21.6049 26.702C21.6049 25.2417 20.4364 24.0536 19.0001 24.0536C17.5637 24.0536 16.3953 25.2416 16.3953 26.702C16.3953 27.924 17.214 28.9549 18.3229 29.2589V32.5667L14.7943 35.4919C14.6056 35.1748 14.4106 34.8586 14.209 34.5468C12.9154 32.5465 11.2894 31.1238 10.1527 30.2824C9.76518 29.9957 9.2563 29.9833 8.85632 30.2507C8.45651 30.5179 8.26609 30.9978 8.37137 31.4734C8.55023 32.2801 8.84079 33.317 9.3028 34.4343C4.57104 31.1847 1.70694 25.7779 1.70694 19.8721C1.70694 11.5496 7.5193 4.30461 15.5274 2.64521C15.8939 2.56929 16.1304 2.20569 16.0557 1.83308C15.9809 1.46048 15.6233 1.21979 15.2569 1.29598C13.3315 1.69493 11.4862 2.40709 9.78992 3.38876C9.08403 1.40449 7.2115 0.0179921 5.0866 0C5.07161 0.00027539 5.05681 0.000183593 5.04191 0.000183593C3.71085 0.000183593 2.45689 0.521955 1.50686 1.47205C0.54635 2.4327 0.0111986 3.71629 0.00018313 5.08644C-0.0175138 7.22374 1.2489 9.10667 3.15105 9.8841C1.3344 12.8668 0.352586 16.3333 0.352586 19.8724C0.352586 23.4254 1.32528 26.8893 3.16549 29.8899C4.58242 32.2003 6.4675 34.166 8.68187 35.664C6.98794 35.4116 5.4586 35.4212 4.40283 35.4855C3.88249 35.518 3.46219 35.8884 3.35691 36.4072C3.25163 36.9259 3.49334 37.435 3.9577 37.6737C5.08841 38.256 6.87887 39.0433 8.98751 39.4871C9.25567 39.5433 9.52139 39.5949 9.78558 39.6443L8.61822 40.6121C8.48432 40.5605 8.34401 40.5234 8.19801 40.5061C7.73419 40.4517 7.27714 40.5834 6.91101 40.8781C6.54488 41.1729 6.31356 41.5948 6.25965 42.0664C6.20575 42.538 6.33568 43.0026 6.62551 43.3749L8.92322 46.3256C9.21305 46.6978 9.62812 46.933 10.092 46.9879C10.1607 46.996 10.2293 47 10.2973 47C10.6892 47 11.0672 46.867 11.379 46.6158C11.7452 46.3212 11.9765 45.8992 12.0304 45.4276C12.049 45.265 12.0442 45.1036 12.0201 44.9461L19.4149 38.8154C19.4473 38.8203 19.4802 38.8236 19.5139 38.8236C19.5203 38.8236 19.5268 38.8235 19.5333 38.8233C24.2557 38.6884 28.7124 36.756 32.0825 33.3817C35.4487 30.0113 37.4181 25.5179 37.6277 20.7291C37.6442 20.3492 37.3549 20.0275 36.9812 20.0106ZM17.7495 26.7022C17.7495 26.0012 18.3104 25.4308 18.9999 25.4308C19.6894 25.4308 20.2503 26.0012 20.2503 26.7022C20.2503 27.4032 19.6894 27.9735 18.9999 27.9735C18.3104 27.9734 17.7495 27.4032 17.7495 26.7022ZM1.35445 5.09792C1.36257 4.0955 1.75407 3.15642 2.45671 2.45363C3.15935 1.75083 4.08817 1.36722 5.07522 1.37722C6.72862 1.39108 8.17309 2.53689 8.60386 4.13681C7.11723 5.15291 5.76956 6.38683 4.61556 7.80729C4.37764 8.10013 4.14966 8.40012 3.93052 8.70598C2.38963 8.21386 1.34072 6.76146 1.35445 5.09792ZM22.058 34.8472L11.3544 43.721L9.65051 41.5329L20.5969 32.4584C20.7122 33.4579 21.2664 34.3224 22.058 34.8472ZM13.0771 35.3034C13.3047 35.6555 13.524 36.0131 13.7336 36.3714L12.5415 37.3595C12.2713 36.9846 12.0041 36.5955 11.744 36.194C10.707 34.5893 10.1339 32.8951 9.83741 31.768C10.7372 32.4914 12.0387 33.6976 13.0771 35.3034ZM9.26127 38.1387C7.7303 37.8164 6.37577 37.2977 5.35197 36.8264C6.47834 36.8086 7.92524 36.8778 9.45259 37.1986C9.98341 37.3103 10.5103 37.4344 11.0239 37.5674C11.178 37.793 11.3335 38.0146 11.4904 38.231L11.1832 38.4856C10.5614 38.3915 9.91714 38.2759 9.26127 38.1387ZM10.6849 45.2685C10.6728 45.3747 10.6207 45.4698 10.5382 45.5363C10.4557 45.6028 10.3527 45.6325 10.2482 45.62C10.1438 45.6077 10.0502 45.5548 9.98495 45.4709L7.68723 42.5201C7.62195 42.4362 7.5927 42.3316 7.6048 42.2254C7.61699 42.1192 7.66909 42.0241 7.75152 41.9576C7.82177 41.9011 7.90691 41.8711 7.99522 41.8711C8.01057 41.8711 8.026 41.8721 8.04144 41.8739C8.14591 41.8862 8.23945 41.9392 8.30473 42.0231L10.6024 44.9738C10.6678 45.0576 10.6971 45.1622 10.6849 45.2685Z" fill="black"/>
<path d="M20.5011 22.2322C21.4876 25.4518 23.2983 27.892 25.3448 28.7594C25.8857 28.9888 26.4332 29.1032 26.9749 29.1031C27.6133 29.1031 28.2437 28.9441 28.8447 28.6269C29.8908 28.0748 30.6211 27.0068 30.9565 25.5379C31.5452 22.9597 30.8339 19.325 29.337 17.263C27.1041 14.187 23.1241 15.6543 22.9557 15.7182L22.9558 15.7183C22.6948 15.8194 19.0056 17.3509 20.5011 22.2322ZM22.1502 18.0018C22.6978 17.2849 23.4129 17.0144 23.42 17.0117C23.4228 17.0106 23.4259 17.0096 23.4284 17.0087C23.5581 16.9601 26.6245 15.8452 28.2474 18.0809C29.5148 19.8268 30.1382 23.0323 29.6372 25.2266C29.4677 25.9687 29.0844 26.9492 28.2208 27.4049C27.4664 27.803 26.6741 27.8313 25.866 27.4886C24.2101 26.7867 22.6499 24.6157 21.7941 21.8227C21.3075 20.2338 21.4272 18.9483 22.1502 18.0018Z" fill="black"/>
<path d="M15.0438 15.7183C14.8754 15.6543 10.8955 14.1871 8.6625 17.2631C8.16013 17.9552 7.72529 18.862 7.40503 19.8853C7.29162 20.2476 7.48864 20.6348 7.84501 20.7501C8.2013 20.8654 8.58224 20.665 8.69564 20.3029C8.97148 19.4214 9.33688 18.653 9.75231 18.0809C11.3751 15.8454 14.4415 16.9601 14.5697 17.008C14.5744 17.0099 14.5791 17.0115 14.5838 17.0133C14.6979 17.0537 17.3624 18.046 16.2054 21.8228C15.3496 24.6158 13.7894 26.7868 12.1334 27.4888C11.3254 27.8312 10.5331 27.8032 9.77876 27.4051C8.67207 26.821 8.08347 25.1748 8.20428 23.0016C8.22532 22.622 7.93973 22.2969 7.56638 22.2754C7.1923 22.254 6.87313 22.5443 6.852 22.924C6.69796 25.6947 7.5373 27.7735 9.15477 28.6271C9.75592 28.9443 10.386 29.1033 11.0245 29.1033C11.5661 29.1033 12.1138 28.9889 12.6546 28.7596C14.7011 27.8921 16.5119 25.4519 17.4983 22.2323C18.994 17.3509 15.3047 15.8195 15.0438 15.7183Z" fill="black"/>
<path d="M22.9409 22.6155C23.3149 22.6155 23.618 22.3074 23.618 21.9271V21.869C23.618 21.4887 23.3149 21.1805 22.9409 21.1805C22.5668 21.1805 22.2637 21.4887 22.2637 21.869V21.9271C22.2637 22.3074 22.5668 22.6155 22.9409 22.6155Z" fill="black"/>
<path d="M15.7362 21.9271V21.869C15.7362 21.4887 15.433 21.1805 15.059 21.1805C14.685 21.1805 14.3818 21.4887 14.3818 21.869V21.9271C14.3818 22.3074 14.685 22.6155 15.059 22.6155C15.433 22.6155 15.7362 22.3074 15.7362 21.9271Z" fill="black"/>
</svg>
